<svg width="161" height="201" xmlns="http://www.w3.org/2000/svg" xmlns:xlink="http://www.w3.org/1999/xlink" overflow="hidden"><defs><clipPath id="clip0"><rect x="382" y="125" width="161" height="201"/></clipPath><clipPath id="clip1"><rect x="414" y="178" width="96" height="96"/></clipPath><clipPath id="clip2"><rect x="414" y="178" width="96" height="96"/></clipPath><clipPath id="clip3"><rect x="414" y="178" width="96" height="96"/></clipPath></defs><g clip-path="url(#clip0)" transform="translate(-382 -125)"><rect x="382" y="126" width="160" height="200" fill="#F2F2F2"/><g clip-path="url(#clip1)"><g clip-path="url(#clip2)"><g clip-path="url(#clip3)"><path d="M467.73 222.91C467.63 223.28 467.52 223.63 467.41 223.91 467.735 225.681 467.895 227.479 467.89 229.28 467.89 233.66 467.04 238.28 464.89 240.41 464.64 241.35 464.68 241.93 465.33 242 467.33 242.23 468.57 244.43 468.57 244.43 469.38 246.86 470.75 246.13 470.75 246.13 475.26 245.07 474.88 250.59 474.48 251.4 474.08 252.21 474.72 251.96 474.72 251.96 476.99 251.64 475.86 246.7 477.15 245.48 477.911 244.825 478.496 243.99 478.85 243.05 480.85 243.95 481.44 241.35 481.44 241.35 481.44 241.35 483.44 242.29 483.96 239.81 486.32 229.06 472.05 224.14 467.73 222.91Z"/><path d="M455.89 229.31C455.882 227.492 456.047 225.677 456.38 223.89 456.28 223.6 456.18 223.28 456.09 222.95 451.61 224.25 437.67 229.17 440 239.84 440.55 242.32 442.52 241.38 442.52 241.38 442.52 241.38 443.16 243.98 445.11 243.08 445.464 244.02 446.049 244.855 446.81 245.51 448.1 246.73 446.97 251.67 449.24 251.99 449.24 251.99 449.97 252.24 449.48 251.43 448.99 250.62 448.7 245.1 453.21 246.16 453.21 246.16 454.58 246.89 455.39 244.46 455.39 244.46 456.62 242.26 458.63 242.03 459.23 241.97 459.31 241.47 459.13 240.67 456.8 238.62 455.89 233.85 455.89 229.31Z"/><path d="M470.06 200.06C469.543 199.45 468.639 199.349 468 199.83 464.29 202.83 462.64 208.93 461.94 212.98 461.23 208.98 459.59 202.8 455.87 199.83 455.195 199.349 454.259 199.507 453.778 200.182 453.335 200.804 453.43 201.66 454 202.17 457.87 205.27 459.24 214 459.44 217.1 459.44 217.1 459.44 217.1 459.44 217.1 459.054 217.704 458.811 218.388 458.73 219.1 458.625 220.626 458.907 222.153 459.55 223.54 459.121 225.402 458.913 227.309 458.93 229.22 458.93 234.41 460.27 238.62 461.93 238.62 463.59 238.62 464.93 234.41 464.93 229.22 464.945 227.326 464.74 225.437 464.32 223.59 464.975 222.188 465.264 220.644 465.16 219.1 465.084 218.36 464.83 217.65 464.42 217.03L464.42 217.03C464.62 213.93 465.99 205.2 469.86 202.1 470.453 201.579 470.541 200.687 470.06 200.06Z"/><path d="M501.58 208.17C500.92 198.84 476.34 208.25 467.47 216.53 467.929 217.596 468.151 218.749 468.12 219.91 471.35 220.78 481.7 224.07 485.65 231.3 486.163 231.43 486.69 231.497 487.22 231.5 490.62 231.39 493 228.26 493.08 225.26 496.132 224.423 498.01 221.36 497.37 218.26 497.37 218.26 502 215.79 500 211.41 501.094 210.713 501.704 209.461 501.58 208.17ZM490 227.83C489.51 228.52 488.77 228.83 488.34 228.52 487.91 228.21 487.95 227.41 488.44 226.72 488.93 226.03 489.67 225.72 490.1 226.04 490.53 226.36 490.49 227.15 490 227.83ZM494.42 221.24C494.01 221.97 493.31 222.36 492.85 222.1 492.39 221.84 492.34 221.04 492.75 220.31 493.16 219.58 493.86 219.18 494.32 219.44 494.78 219.7 494.83 220.5 494.42 221.24ZM498 214.24C497.74 215.04 497.13 215.56 496.62 215.4 496.11 215.24 495.92 214.46 496.17 213.66 496.42 212.86 497.04 212.34 497.54 212.5 498.04 212.66 498.25 213.43 498 214.23ZM497.88 209.59C497.35 209.59 496.88 208.91 496.88 208.07 496.88 207.23 497.31 206.55 497.88 206.55 498.45 206.55 498.88 207.23 498.88 208.07 498.88 208.91 498.4 209.58 497.88 209.58Z"/><path d="M423.81 211.41C421.81 215.79 426.48 218.22 426.48 218.22 425.84 221.32 427.718 224.383 430.77 225.22 430.85 228.22 433.23 231.35 436.63 231.46 437.159 231.457 437.687 231.39 438.2 231.26 442.15 224.03 452.5 220.74 455.73 219.87 455.708 218.71 455.93 217.559 456.38 216.49 447.51 208.25 422.93 198.84 422.27 208.17 422.142 209.452 422.735 210.7 423.81 211.41ZM433.75 226C434.18 225.69 434.93 226 435.41 226.68 435.89 227.36 435.95 228.17 435.51 228.48 435.07 228.79 434.34 228.48 433.85 227.79 433.36 227.1 433.32 226.35 433.75 226ZM429.53 219.4C429.99 219.14 430.7 219.53 431.11 220.27 431.52 221.01 431.47 221.8 431.01 222.06 430.55 222.32 429.84 221.93 429.43 221.2 429.02 220.47 429.07 219.7 429.53 219.44ZM426.31 212.45C426.81 212.29 427.43 212.81 427.68 213.61 427.93 214.41 427.73 215.19 427.23 215.35 426.73 215.51 426.11 214.99 425.85 214.19 425.59 213.39 425.8 212.65 426.31 212.49ZM425 208.06C425 207.22 425.43 206.54 426 206.54 426.57 206.54 426.95 207.22 426.95 208.06 426.95 208.9 426.53 209.58 426 209.58 425.47 209.58 425 208.9 425 208.06Z"/></g></g></g></g></svg>