<svg width="161" height="201" xmlns="http://www.w3.org/2000/svg" xmlns:xlink="http://www.w3.org/1999/xlink" overflow="hidden"><defs><clipPath id="clip0"><rect x="214" y="125" width="161" height="201"/></clipPath><clipPath id="clip1"><rect x="256" y="165" width="88" height="89"/></clipPath><clipPath id="clip2"><rect x="256" y="165" width="88" height="89"/></clipPath><clipPath id="clip3"><rect x="256" y="165" width="88" height="89"/></clipPath></defs><g clip-path="url(#clip0)" transform="translate(-214 -125)"><rect x="214" y="125" width="160" height="200" fill="#F2F2F2"/><path d="M373.669 166 257 325 374 325C373.89 272 373.779 219 373.669 166Z" fill="#A6A6A6" fill-rule="evenodd"/><g clip-path="url(#clip1)"><g clip-path="url(#clip2)"><g clip-path="url(#clip3)"><path d="M55.9167 11.9167C55.9167 15.9668 52.6334 19.25 48.5833 19.25 44.5332 19.25 41.25 15.9668 41.25 11.9167 41.25 7.86658 44.5332 4.58333 48.5833 4.58333 52.6334 4.58333 55.9167 7.86658 55.9167 11.9167Z" transform="matrix(1 0 -0 1.01136 256 165)"/><path d="M67.1917 40.5167 57.75 37.4C57.75 37.4 52.525 25.3 52.3417 24.9333 51.0583 22.6417 48.675 21.0833 45.925 21.0833 44.825 21.0833 43.725 21.3583 42.8083 21.8167L29.975 26.8583C29.0583 27.225 28.325 27.9583 27.9583 28.875L23.375 39.875C22.6417 41.7083 23.4667 43.9083 25.3917 44.6417 25.85 44.825 26.3083 44.9167 26.7667 44.9167 28.2333 44.9167 29.6083 44.0917 30.1583 42.625L33.9167 33.0917 37.7667 31.625 31.4417 62.5167 19.1583 77.4583C17.875 79.0167 18.0583 81.3083 19.6167 82.5917 20.2583 83.1417 21.0833 83.4167 21.9083 83.4167 23.0083 83.4167 24.0167 82.9583 24.75 82.0417L37.5833 66.4583C37.95 66 38.225 65.45 38.3167 64.9L40.5167 54.2667 50.4167 61.4167 50.4167 79.75C50.4167 81.7667 52.0667 83.4167 54.0833 83.4167 56.1 83.4167 57.75 81.7667 57.75 79.75L57.75 59.5833C57.75 58.3917 57.2 57.2917 56.2833 56.65L47.3917 50.1417 49.8667 37.7667 51.6083 41.8C52.0667 42.7167 52.8 43.45 53.8083 43.8167L64.8083 47.4833C65.175 47.575 65.5417 47.6667 66 47.6667 67.5583 47.6667 68.9333 46.6583 69.4833 45.1917 70.125 43.2667 69.1167 41.1583 67.1917 40.5167Z" transform="matrix(1 0 -0 1.01136 256 165)"/></g></g></g><rect x="270.5" y="165.5" width="58" height="89" stroke="#6D6D6D" stroke-width="2.66667" stroke-linejoin="round" stroke-miterlimit="10" stroke-dasharray="8 2.66667" fill="none"/></g></svg>