<svg width="162" height="202" xmlns="http://www.w3.org/2000/svg" xmlns:xlink="http://www.w3.org/1999/xlink" overflow="hidden"><defs><clipPath id="clip0"><rect x="392" y="38" width="162" height="202"/></clipPath><clipPath id="clip1"><rect x="420" y="59" width="30" height="31"/></clipPath><clipPath id="clip2"><rect x="420" y="59" width="30" height="31"/></clipPath><clipPath id="clip3"><rect x="420" y="59" width="30" height="31"/></clipPath><clipPath id="clip4"><rect x="494" y="110" width="41" height="41"/></clipPath><clipPath id="clip5"><rect x="494" y="110" width="41" height="41"/></clipPath><clipPath id="clip6"><rect x="494" y="110" width="41" height="41"/></clipPath><clipPath id="clip7"><rect x="413" y="118" width="61" height="60"/></clipPath><clipPath id="clip8"><rect x="413" y="118" width="61" height="60"/></clipPath><clipPath id="clip9"><rect x="413" y="118" width="61" height="60"/></clipPath><clipPath id="clip10"><rect x="454" y="85" width="37" height="38"/></clipPath><clipPath id="clip11"><rect x="454" y="85" width="37" height="38"/></clipPath><clipPath id="clip12"><rect x="454" y="85" width="37" height="38"/></clipPath></defs><g clip-path="url(#clip0)" transform="translate(-392 -38)"><rect x="393" y="39" width="160" height="200" fill="#F2F2F2"/><g clip-path="url(#clip1)"><g clip-path="url(#clip2)"><g clip-path="url(#clip3)"><path d="M19.0625 4.0625C19.0625 5.44321 17.9432 6.5625 16.5625 6.5625 15.1818 6.5625 14.0625 5.44321 14.0625 4.0625 14.0625 2.68179 15.1818 1.5625 16.5625 1.5625 17.9432 1.5625 19.0625 2.68179 19.0625 4.0625Z" transform="matrix(-1 -8.74228e-08 -9.03369e-08 1.03333 450 59)"/><path d="M22.9062 13.8125 19.6875 12.75C19.6875 12.75 17.9062 8.625 17.8438 8.5 17.4062 7.71875 16.5938 7.1875 15.6562 7.1875 15.2812 7.1875 14.9062 7.28125 14.5938 7.4375L10.2188 9.15625C9.90625 9.28125 9.65625 9.53125 9.53125 9.84375L7.96875 13.5938C7.71875 14.2188 8 14.9688 8.65625 15.2188 8.8125 15.2812 8.96875 15.3125 9.125 15.3125 9.625 15.3125 10.0938 15.0312 10.2812 14.5312L11.5625 11.2812 12.875 10.7812 10.7188 21.3125 6.53125 26.4062C6.09375 26.9375 6.15625 27.7188 6.6875 28.1562 6.90625 28.3438 7.1875 28.4375 7.46875 28.4375 7.84375 28.4375 8.1875 28.2812 8.4375 27.9688L12.8125 22.6562C12.9375 22.5 13.0312 22.3125 13.0625 22.125L13.8125 18.5 17.1875 20.9375 17.1875 27.1875C17.1875 27.875 17.75 28.4375 18.4375 28.4375 19.125 28.4375 19.6875 27.875 19.6875 27.1875L19.6875 20.3125C19.6875 19.9062 19.5 19.5312 19.1875 19.3125L16.1562 17.0938 17 12.875 17.5938 14.25C17.75 14.5625 18 14.8125 18.3438 14.9375L22.0938 16.1875C22.2188 16.2188 22.3438 16.25 22.5 16.25 23.0312 16.25 23.5 15.9062 23.6875 15.4062 23.9062 14.75 23.5625 14.0312 22.9062 13.8125Z" transform="matrix(-1 -8.74228e-08 -9.03369e-08 1.03333 450 59)"/></g></g></g><g clip-path="url(#clip4)"><g clip-path="url(#clip5)"><g clip-path="url(#clip6)"><path d="M520.052 115.552C520.052 117.439 518.522 118.969 516.635 118.969 514.748 118.969 513.219 117.439 513.219 115.552 513.219 113.665 514.748 112.135 516.635 112.135 518.522 112.135 520.052 113.665 520.052 115.552Z"/><path d="M525.305 128.877 520.906 127.425C520.906 127.425 518.472 121.787 518.386 121.617 517.789 120.549 516.678 119.823 515.397 119.823 514.884 119.823 514.372 119.951 513.945 120.165L507.966 122.514C507.539 122.684 507.197 123.026 507.026 123.453L504.891 128.578C504.549 129.432 504.933 130.457 505.83 130.799 506.044 130.884 506.257 130.927 506.471 130.927 507.154 130.927 507.795 130.543 508.051 129.859L509.802 125.418 511.596 124.734 508.649 139.127 502.926 146.089C502.328 146.815 502.414 147.882 503.14 148.48 503.439 148.736 503.823 148.865 504.207 148.865 504.72 148.865 505.19 148.651 505.531 148.224L511.51 140.964C511.681 140.75 511.809 140.494 511.852 140.238L512.877 135.283 517.49 138.615 517.49 147.156C517.49 148.096 518.258 148.865 519.198 148.865 520.138 148.865 520.906 148.096 520.906 147.156L520.906 137.76C520.906 137.205 520.65 136.693 520.223 136.394L516.08 133.361 517.233 127.596 518.045 129.475C518.258 129.902 518.6 130.244 519.07 130.415L524.195 132.123C524.366 132.166 524.536 132.208 524.75 132.208 525.476 132.208 526.117 131.739 526.373 131.055 526.672 130.158 526.202 129.176 525.305 128.877Z"/></g></g></g><g clip-path="url(#clip7)"><g clip-path="url(#clip8)"><g clip-path="url(#clip9)"><path d="M35 6.875C35 9.63642 32.7614 11.875 30 11.875 27.2386 11.875 25 9.63642 25 6.875 25 4.11358 27.2386 1.875 30 1.875 32.7614 1.875 35 4.11358 35 6.875Z" transform="matrix(1.01667 0 -0 1 413 118)"/><path d="M43.625 32.625 40.125 17.75C40 17.25 39.75 16.75 39.375 16.375 37.875 15.125 36.125 14.25 34.125 13.625 32.75 13.375 31.375 13.125 30 13.125 28.625 13.125 27.25 13.375 25.875 13.75 23.875 14.25 22.125 15.25 20.625 16.5 20.25 16.875 20 17.375 19.875 17.875L16.375 32.75C16.375 32.875 16.25 33.125 16.25 33.375 16.25 34.75 17.375 35.875 18.75 35.875 19.875 35.875 20.875 35 21.125 34L23.75 23.125 23.75 58.125 28.75 58.125 28.75 35.625 31.25 35.625 31.25 58.125 36.25 58.125 36.25 23 38.875 33.875C39.125 34.875 40.125 35.75 41.25 35.75 42.625 35.75 43.75 34.625 43.75 33.25 43.75 33 43.625 32.75 43.625 32.625Z" transform="matrix(1.01667 0 -0 1 413 118)"/></g></g></g><g clip-path="url(#clip10)"><g clip-path="url(#clip11)"><g clip-path="url(#clip12)"><path d="M21.5833 4.23958C21.5833 5.94246 20.2029 7.32292 18.5 7.32292 16.7971 7.32292 15.4167 5.94246 15.4167 4.23958 15.4167 2.53671 16.7971 1.15625 18.5 1.15625 20.2029 1.15625 21.5833 2.53671 21.5833 4.23958Z" transform="matrix(1 0 -0 1.02703 454 85)"/><path d="M26.9021 20.1187 24.7437 10.9458C24.6667 10.6375 24.5125 10.3292 24.2812 10.0979 23.3562 9.32708 22.2771 8.7875 21.0437 8.40208 20.1958 8.24792 19.3479 8.09375 18.5 8.09375 17.6521 8.09375 16.8042 8.24792 15.9563 8.47917 14.7229 8.7875 13.6438 9.40417 12.7188 10.175 12.4875 10.4062 12.3333 10.7146 12.2562 11.0229L10.0979 20.1958C10.0979 20.2729 10.0208 20.4271 10.0208 20.5812 10.0208 21.4292 10.7146 22.1229 11.5625 22.1229 12.2562 22.1229 12.8729 21.5833 13.0271 20.9667L14.6458 14.2604 14.6458 35.8438 17.7292 35.8438 17.7292 21.9688 19.2708 21.9688 19.2708 35.8438 22.3542 35.8438 22.3542 14.1833 23.9729 20.8896C24.1271 21.5062 24.7437 22.0458 25.4375 22.0458 26.2854 22.0458 26.9792 21.3521 26.9792 20.5042 26.9792 20.35 26.9021 20.1958 26.9021 20.1187Z" transform="matrix(1 0 -0 1.02703 454 85)"/></g></g></g><rect x="498" y="166" width="41" height="54" stroke="#7F7F7F" stroke-width="2" stroke-linejoin="round" stroke-miterlimit="10" stroke-dasharray="6 2" fill="none"/><text font-family="Arial,Arial_MSFontService,sans-serif" font-weight="400" font-size="37" transform="translate(507.564 206)">4</text></g></svg>