<svg width="162" height="202" xmlns="http://www.w3.org/2000/svg" xmlns:xlink="http://www.w3.org/1999/xlink" overflow="hidden"><defs><clipPath id="clip0"><rect x="218" y="38" width="162" height="202"/></clipPath><clipPath id="clip1"><rect x="273" y="45" width="79" height="60"/></clipPath><clipPath id="clip2"><rect x="273" y="45" width="79" height="60"/></clipPath><clipPath id="clip3"><rect x="273" y="26" width="79" height="79"/></clipPath><clipPath id="clip4"><path d="M254.592 169.389 288.24 203.037 259.271 232.006 225.623 198.358Z" fill-rule="evenodd" clip-rule="evenodd"/></clipPath><clipPath id="clip5"><path d="M254.592 169.389 288.24 203.037 259.271 232.006 225.623 198.358Z" fill-rule="evenodd" clip-rule="evenodd"/></clipPath><clipPath id="clip6"><path d="M254.592 169.389 288.24 203.037 254.592 236.685 220.944 203.037Z" fill-rule="evenodd" clip-rule="evenodd"/></clipPath><clipPath id="clip7"><path d="M312.513 195.518 355.168 170.892 376.106 207.157 333.451 231.783Z" fill-rule="evenodd" clip-rule="evenodd"/></clipPath><clipPath id="clip8"><path d="M312.59 195.474 353.799 171.682 374.737 207.947 333.527 231.739Z" fill-rule="evenodd" clip-rule="evenodd"/></clipPath><clipPath id="clip9"><path d="M312.59 195.474 353.799 171.682 377.592 212.892 336.382 236.684Z" fill-rule="evenodd" clip-rule="evenodd"/></clipPath><clipPath id="clip10"><rect x="299" y="105" width="49" height="50"/></clipPath><clipPath id="clip11"><rect x="299" y="105" width="49" height="50"/></clipPath><clipPath id="clip12"><rect x="299" y="105" width="49" height="50"/></clipPath></defs><g clip-path="url(#clip0)" transform="translate(-218 -38)"><rect x="219" y="39" width="160" height="200" fill="#F2F2F2"/><rect x="219" y="39" width="160" height="55" fill="#A6A6A6"/><g clip-path="url(#clip1)"><g clip-path="url(#clip2)"><g clip-path="url(#clip3)"><path d="M-26.0403-50.4531C-26.0403-54.0485-23.1256-56.9632-19.5302-56.9632-15.9348-56.9632-13.0202-54.0485-13.0202-50.4531-13.0202-46.8577-15.9348-43.943-19.5302-43.943-23.1256-43.943-26.0403-46.8577-26.0403-50.4531Z" transform="matrix(1.01125 8.84065e-08 8.74228e-08 -1 352 26.8791)"/><path d="M-65.1008-50.4531C-65.1008-54.0485-62.1861-56.9632-58.5907-56.9632-54.9953-56.9632-52.0806-54.0485-52.0806-50.4531-52.0806-46.8577-54.9953-43.943-58.5907-43.943-62.1861-43.943-65.1008-46.8577-65.1008-50.4531Z" transform="matrix(1.01125 8.84065e-08 8.74228e-08 -1 352 26.8791)"/><path d="M-31.7366-34.1779-31.7366-24.4128-42.8851-24.4128C-43.7803-24.4128-44.594-24.7383-45.1637-25.3893L-53.9523-34.1779-31.7366-34.1779ZM-28.4816-34.1779-7.89347-34.1779-16.6821-25.3893C-17.3331-24.7383-18.1468-24.4128-18.9606-24.4128L-28.4816-24.4128-28.4816-34.1779ZM-66.7283-34.1779-59.9741-34.1779C-59.079-34.1779-58.2652-33.8524-57.6956-33.2014L-47.4422-23.0294C-46.2215-21.8088-44.594-21.1578-42.8038-21.1578L-18.9606-21.1578C-17.2517-21.1578-15.5428-21.8088-14.3222-23.0294L-4.23155-33.2014C-3.58054-33.8524-3.25504-34.6662-3.25504-35.5613L-3.25504-43.943C-3.25504-47.5236-6.18457-50.4531-9.76512-50.4531L-10.5789-50.4531C-10.5789-45.4892-14.5663-41.5017-19.5302-41.5017-24.4942-41.5017-28.4816-45.4892-28.4816-50.4531L-49.6393-50.4531C-49.6393-45.4892-53.6268-41.5017-58.5907-41.5017-63.5546-41.5017-67.5421-45.4892-67.5421-50.4531L-71.6109-50.4531C-73.4011-50.4531-74.8659-48.9883-74.8659-47.1981L-74.8659-42.3155C-74.8659-37.8398-71.204-34.1779-66.7283-34.1779Z" transform="matrix(1.01125 8.84065e-08 8.74228e-08 -1 352 26.8791)"/></g></g></g><path d="M135.615 0 0 159 136 159C135.872 106 135.743 53 135.615 0Z" fill="#A6A6A6" fill-rule="evenodd" transform="matrix(-1 -8.74228e-08 -8.74228e-08 1 355 80)"/><g clip-path="url(#clip4)"><g clip-path="url(#clip5)"><g clip-path="url(#clip6)"><path d="M8.42656 27.7581C8.27786 23.1483 8.42656 18.935 10.905 14.8704 13.6808 10.3101 18.0923 6.93952 23.4457 6.29514 28.799 5.65075 34.2019 7.03866 38.6135 10.1119 42.3807 12.8877 45.6026 17.8941 45.6026 22.7022 45.0078 19.0341 42.9259 15.7626 39.8031 13.6808 36.6803 11.6485 32.8636 10.9545 29.2451 11.8963 25.8249 12.6894 22.9996 15.3165 21.116 18.241 19.2324 21.1655 19.3315 24.3875 19.3315 27.7581L25.7754 27.7581 13.879 39.6544C13.879 39.6544 4.01501 29.7904 1.98272 27.7581L8.42656 27.7581Z" transform="matrix(0.707107 0.707107 -0.70711 0.70711 254.592 169.389)"/></g></g></g><g clip-path="url(#clip7)"><g clip-path="url(#clip8)"><g clip-path="url(#clip9)"><path d="M39.1586 28.6502C39.3073 24.0404 39.1586 19.8271 36.6802 15.7626 33.9044 11.2023 29.4929 7.83172 24.1395 7.18733 18.7862 6.54295 13.3833 7.93085 8.97178 11.0041 5.20462 13.7799 1.98271 18.7862 1.98271 23.5943 2.57753 19.9263 4.65937 16.6548 7.78215 14.5729 10.9049 12.4911 14.7216 11.8467 18.3401 12.7389 21.7603 13.532 24.5856 16.1591 26.4692 19.0836 28.3528 22.0081 28.2537 25.2796 28.2537 28.6502L21.8098 28.6502 33.7061 40.5465C33.7061 40.5465 43.5701 30.6825 45.6024 28.6502L39.1586 28.6502Z" transform="matrix(0.866025 -0.5 0.500001 0.866027 312.59 195.474)"/></g></g></g><g clip-path="url(#clip10)"><g clip-path="url(#clip11)"><g clip-path="url(#clip12)"><path d="M31.1354 6.63542C31.1354 8.89058 29.3072 10.7188 27.0521 10.7188 24.7969 10.7188 22.9688 8.89058 22.9688 6.63542 22.9688 4.38025 24.7969 2.55208 27.0521 2.55208 29.3072 2.55208 31.1354 4.38025 31.1354 6.63542Z" transform="matrix(1 0 -0 1.02041 299 105)"/><path d="M37.4135 22.5604 32.1562 20.825C32.1562 20.825 29.2469 14.0875 29.1448 13.8833 28.4302 12.6073 27.1031 11.7396 25.5719 11.7396 24.9594 11.7396 24.3469 11.8927 23.8365 12.1479L16.6906 14.9552C16.1802 15.1594 15.7719 15.5677 15.5677 16.0781L13.0156 22.2031C12.6073 23.224 13.0667 24.449 14.1385 24.8573 14.3938 24.9594 14.649 25.0104 14.9042 25.0104 15.7208 25.0104 16.4865 24.551 16.7927 23.7344L18.8854 18.426 21.0292 17.6094 17.5073 34.8104 10.6677 43.1302C9.95312 43.9979 10.0552 45.274 10.9229 45.9885 11.2802 46.2948 11.7396 46.4479 12.199 46.4479 12.8115 46.4479 13.3729 46.1927 13.7813 45.6823L20.9271 37.0052C21.1313 36.75 21.2844 36.4438 21.3354 36.1375L22.5604 30.2167 28.0729 34.1979 28.0729 44.4062C28.0729 45.5292 28.9917 46.4479 30.1146 46.4479 31.2375 46.4479 32.1562 45.5292 32.1562 44.4062L32.1562 33.1771C32.1562 32.5135 31.85 31.901 31.3396 31.5438L26.3885 27.9198 27.7667 21.0292 28.7365 23.275C28.9917 23.7854 29.4 24.1938 29.9615 24.3979L36.0865 26.4396C36.2906 26.4906 36.4948 26.5417 36.75 26.5417 37.6177 26.5417 38.3833 25.9802 38.6896 25.1635 39.0469 24.0917 38.4854 22.9177 37.4135 22.5604Z" transform="matrix(1 0 -0 1.02041 299 105)"/></g></g></g></g></svg>