<svg width="161" height="201" xmlns="http://www.w3.org/2000/svg" xmlns:xlink="http://www.w3.org/1999/xlink" overflow="hidden"><defs><clipPath id="clip0"><rect x="46" y="125" width="161" height="201"/></clipPath><clipPath id="clip1"><rect x="70" y="162" width="72" height="72"/></clipPath><clipPath id="clip2"><rect x="70" y="162" width="72" height="72"/></clipPath><clipPath id="clip3"><rect x="70" y="162" width="72" height="72"/></clipPath><clipPath id="clip4"><rect x="106" y="226" width="72" height="72"/></clipPath><clipPath id="clip5"><rect x="106" y="226" width="72" height="72"/></clipPath><clipPath id="clip6"><rect x="106" y="226" width="72" height="72"/></clipPath></defs><g clip-path="url(#clip0)" transform="translate(-46 -125)"><rect x="46" y="125" width="160" height="200" fill="#F2F2F2"/><g clip-path="url(#clip1)"><g clip-path="url(#clip2)"><g clip-path="url(#clip3)"><path d="M92.875 190.5 136.075 182.85 133.975 171 74.95 181.5 76.9 192.525 77.05 222C77.05 223.65 78.4 225 80.05 225L134.05 225C135.7 225 137.05 223.65 137.05 222L137.05 190.5 92.875 190.5ZM126.55 175.35 131.575 174.45 131.725 175.35 127.6 181.2 121.75 182.325 126.55 175.35ZM114.4 177.525 120.325 176.475 115.45 183.45 109.525 184.5 114.4 177.525ZM102.175 179.7 108.1 178.65 103.225 185.625 97.3 186.675 102.175 179.7ZM90.025 181.875 95.95 180.825 91.075 187.8 85.15 188.85 90.025 181.875ZM83.725 183 79.375 189.225 78.4 183.9 83.725 183ZM125.05 209.25 89.05 209.25 89.05 200.25 125.05 200.25 125.05 209.25Z"/></g></g></g><g clip-path="url(#clip4)"><g clip-path="url(#clip5)"><g clip-path="url(#clip6)"><path d="M127 280 126.925 280C126.625 278.725 125.425 277.75 124 277.75L118 277.75C116.575 277.75 115.45 278.725 115.075 280L115 280C113.35 280 112 281.35 112 283L113.5 287.5 128.5 287.5 130 283C130 281.35 128.65 280 127 280Z"/><path d="M124.75 272.5C124.75 274.571 123.071 276.25 121 276.25 118.929 276.25 117.25 274.571 117.25 272.5 117.25 270.429 118.929 268.75 121 268.75 123.071 268.75 124.75 270.429 124.75 272.5Z"/><path d="M148 280 148 280C147.625 278.725 146.425 277.75 145 277.75L139 277.75C137.575 277.75 136.45 278.725 136.075 280L136 280C134.35 280 133 281.35 133 283L134.5 287.5 149.5 287.5 151 283C151 281.35 149.65 280 148 280Z"/><path d="M145.75 272.5C145.75 274.571 144.071 276.25 142 276.25 139.929 276.25 138.25 274.571 138.25 272.5 138.25 270.429 139.929 268.75 142 268.75 144.071 268.75 145.75 270.429 145.75 272.5Z"/><path d="M169 280 169 280C168.625 278.725 167.425 277.75 166 277.75L160 277.75C158.575 277.75 157.45 278.725 157.075 280L157 280C155.35 280 154 281.35 154 283L155.5 287.5 170.5 287.5 172 283C172 281.35 170.65 280 169 280Z"/><path d="M166.75 272.5C166.75 274.571 165.071 276.25 163 276.25 160.929 276.25 159.25 274.571 159.25 272.5 159.25 270.429 160.929 268.75 163 268.75 165.071 268.75 166.75 270.429 166.75 272.5Z"/><path d="M109 236.5 109 273.25 115.075 273.25C115.075 273.025 115 272.725 115 272.5 115 269.2 117.7 266.5 121 266.5 124.3 266.5 127 269.2 127 272.5 127 272.725 127 273.025 126.925 273.25L136 273.25C136 273.025 135.925 272.725 135.925 272.5 135.925 269.2 138.625 266.5 141.925 266.5 145.225 266.5 147.925 269.2 147.925 272.5 147.925 272.725 147.925 273.025 147.85 273.25L156.925 273.25C156.925 273.025 156.85 272.725 156.85 272.5 156.85 269.2 159.55 266.5 162.85 266.5 166.15 266.5 168.85 269.2 168.85 272.5 168.85 272.725 168.85 273.025 168.775 273.25L175 273.25 175 236.5 109 236.5Z"/></g></g></g></g></svg>