<svg width="161" height="201" xmlns="http://www.w3.org/2000/svg" xmlns:xlink="http://www.w3.org/1999/xlink" overflow="hidden"><defs><clipPath id="clip0"><rect x="730" y="124" width="161" height="201"/></clipPath><clipPath id="clip1"><rect x="805" y="191" width="69" height="69"/></clipPath><clipPath id="clip2"><rect x="805" y="191" width="69" height="69"/></clipPath><clipPath id="clip3"><rect x="805" y="191" width="69" height="69"/></clipPath><clipPath id="clip4"><rect x="746" y="149" width="61" height="61"/></clipPath><clipPath id="clip5"><rect x="746" y="149" width="61" height="61"/></clipPath><clipPath id="clip6"><rect x="746" y="149" width="61" height="61"/></clipPath><clipPath id="clip7"><rect x="761" y="238" width="72" height="71"/></clipPath><clipPath id="clip8"><rect x="761" y="238" width="72" height="71"/></clipPath><clipPath id="clip9"><rect x="761" y="238" width="72" height="71"/></clipPath></defs><g clip-path="url(#clip0)" transform="translate(-730 -124)"><rect x="730" y="124" width="160" height="200" fill="#F2F2F2"/><g clip-path="url(#clip1)"><g clip-path="url(#clip2)"><g clip-path="url(#clip3)"><path d="M860.552 222.733 852.15 221.734 852.531 211.355C852.567 210.325 852.049 209.354 851.172 208.811L845.839 205.504C845.565 205.333 845.264 205.209 844.948 205.138L831.155 202.09C830.161 201.871 829.125 202.193 828.431 202.938L822.25 209.544C821.166 210.705 821.229 212.525 822.39 213.608 823.551 214.692 825.371 214.629 826.455 213.468L831.486 208.063 839.859 209.91 830.516 220.577C830.228 220.923 829.987 221.304 829.797 221.712 829.722 221.802 829.654 221.898 829.596 222L822.818 234.003 813.086 228.375C811.711 227.581 809.952 228.052 809.158 229.428 808.364 230.803 808.836 232.562 810.211 233.356L822.473 240.428C822.909 240.684 823.405 240.818 823.91 240.817 824.165 240.815 824.419 240.782 824.665 240.716 825.405 240.514 826.034 240.025 826.412 239.357L832.312 228.871 841.656 236.777 840.053 252.331C839.89 253.91 841.038 255.323 842.618 255.486 842.618 255.486 842.619 255.486 842.619 255.486L842.921 255.486C844.401 255.494 845.645 254.378 845.796 252.906L847.536 235.864C847.62 234.929 847.241 234.011 846.522 233.406L838.616 226.672 846.551 217.594 846.307 224.192C846.263 225.681 847.364 226.957 848.844 227.132L859.877 228.44 860.222 228.44C861.809 228.531 863.171 227.318 863.262 225.73 863.353 224.142 862.14 222.781 860.552 222.69Z"/><path d="M870.406 249.938C870.406 253.113 867.832 255.688 864.656 255.688 861.481 255.688 858.906 253.113 858.906 249.938 858.906 246.762 861.481 244.188 864.656 244.188 867.832 244.188 870.406 246.762 870.406 249.938Z"/><path d="M858.906 201.062C858.906 204.238 856.332 206.812 853.156 206.812 849.981 206.812 847.406 204.238 847.406 201.062 847.406 197.887 849.981 195.312 853.156 195.312 856.332 195.312 858.906 197.887 858.906 201.062Z"/></g></g></g><g clip-path="url(#clip4)"><g clip-path="url(#clip5)"><g clip-path="url(#clip6)"><path d="M775.757 157.26C775.757 160.068 773.481 162.344 770.673 162.344 767.866 162.344 765.59 160.068 765.59 157.26 765.59 154.453 767.866 152.177 770.673 152.177 773.481 152.177 775.757 154.453 775.757 157.26Z"/><path d="M793.199 164.981C792.445 163.797 790.873 163.448 789.69 164.203 789.688 164.204 789.686 164.204 789.685 164.206L784.125 167.758 777.078 163.945C776.477 163.618 775.769 163.547 775.115 163.748L766.854 166.29C766.249 166.476 765.734 166.881 765.412 167.427L761.599 173.966 755.372 172.345C754.001 172.046 752.647 172.915 752.347 174.287 752.064 175.585 752.828 176.882 754.102 177.263L762.19 179.367C762.398 179.422 762.611 179.45 762.826 179.449 763.731 179.446 764.566 178.962 765.018 178.178L767.935 173.146 768.335 180.415 763.252 192.939C763.018 193.535 763.018 194.198 763.252 194.794L767.172 205.171C767.538 206.15 768.465 206.805 769.51 206.823 769.817 206.824 770.121 206.768 770.406 206.658 771.718 206.162 772.381 204.698 771.887 203.385L768.322 193.937 772.446 183.802 773.228 193.371C773.265 193.829 773.425 194.268 773.691 194.642L780.046 203.538C780.863 204.68 782.452 204.943 783.594 204.126 784.737 203.308 785 201.719 784.182 200.577L778.235 192.253 777.18 179.316 776.646 169.473 783 172.943C783.814 173.387 784.805 173.353 785.586 172.854L792.411 168.488C793.597 167.737 793.95 166.167 793.199 164.981 793.199 164.981 793.199 164.981 793.199 164.981Z"/><path d="M797.837 173.781 787.239 178.293 788.814 187.239C788.171 187.219 787.535 187.391 786.991 187.735 785.72 188.472 785.084 189.749 785.58 190.588 786.076 191.427 787.486 191.516 788.757 190.798 789.907 190.162 790.53 189.025 790.276 188.205L788.745 179.5 796.941 175.986 798.288 183.611C797.637 183.598 796.995 183.772 796.439 184.113 795.169 184.85 794.533 186.121 795.029 186.96 795.524 187.799 796.935 187.894 798.206 187.176 799.261 186.54 799.864 185.594 799.782 184.787L799.782 184.787 797.837 173.781Z"/></g></g></g><g clip-path="url(#clip7)"><g clip-path="url(#clip8)"><g clip-path="url(#clip9)"><path d="M61.3854 32.5417 28.8438 32.5417C27.6183 32.5417 26.625 33.535 26.625 34.7604 26.625 35.9858 27.6183 36.9792 28.8438 36.9792L42.8958 36.9792 42.8958 56.9479 38.4583 56.9479 38.4583 61.3854 51.7708 61.3854 51.7708 56.9479 47.3333 56.9479 47.3333 36.9792 61.3854 36.9792C62.6108 36.9792 63.6042 35.9858 63.6042 34.7604 63.6042 33.535 62.6108 32.5417 61.3854 32.5417Z" transform="matrix(1.01408 0 -0 1 761 238)"/><path d="M25.8854 46.5938 11.8333 46.5938 11.8333 26.625C11.8333 25.3996 10.84 24.4062 9.61458 24.4062 8.38917 24.4062 7.39583 25.3996 7.39583 26.625L7.39583 48.8125C7.39583 50.0379 8.38917 51.0312 9.61458 51.0312L15.5312 51.0312 15.5312 56.9479 11.0938 56.9479 11.0938 61.3854 24.4062 61.3854 24.4062 56.9479 19.9688 56.9479 19.9688 51.0312 25.8854 51.0312C27.1108 51.0312 28.1042 50.0379 28.1042 48.8125 28.1042 47.5871 27.1108 46.5938 25.8854 46.5938Z" transform="matrix(1.01408 0 -0 1 761 238)"/><path d="M26.2182 29.8348C26.6495 30.1455 27.1659 30.316 27.6974 30.3229L35.0932 30.3229C36.5228 30.3229 37.6818 29.164 37.6818 27.7344 37.6818 26.3048 36.5228 25.1458 35.0932 25.1458L28.5701 25.1458 22.7348 20.9228C21.6456 19.9301 20.1849 19.4485 18.7189 19.599 16.0342 19.9096 14.019 22.1995 14.0521 24.9018L14.0521 39.1979C14.0521 42.0571 16.3699 44.375 19.2292 44.375L31.0625 44.375 31.0625 57.3177C31.0625 58.7473 32.2214 59.9062 33.651 59.9062 35.0807 59.9062 36.2396 58.7473 36.2396 57.3177L36.2396 41.7865C36.2396 40.3568 35.0807 39.1979 33.651 39.1979L24.4062 39.1979 24.4062 28.5183Z" transform="matrix(1.01408 0 -0 1 761 238)"/><path d="M24.4062 12.5729C24.4062 15.4321 22.0884 17.75 19.2292 17.75 16.3699 17.75 14.0521 15.4321 14.0521 12.5729 14.0521 9.71369 16.3699 7.39583 19.2292 7.39583 22.0884 7.39583 24.4062 9.71369 24.4062 12.5729Z" transform="matrix(1.01408 0 -0 1 761 238)"/><path d="M39.0426 28.8438C38.9002 29.3823 38.6484 29.8858 38.303 30.3229L44.375 30.3229C45.1919 30.3229 45.8542 29.6607 45.8542 28.8438Z" transform="matrix(1.01408 0 -0 1 761 238)"/><path d="M35.5 19.9688 35.9364 23.748C37.7035 24.0999 39.0299 25.5706 39.1979 27.3646L39.8488 27.3646 40.6771 19.9688Z" transform="matrix(1.01408 0 -0 1 761 238)"/></g></g></g></g></svg>