<svg width="162" height="202" xmlns="http://www.w3.org/2000/svg" xmlns:xlink="http://www.w3.org/1999/xlink" overflow="hidden"><defs><clipPath id="clip0"><rect x="44" y="38" width="162" height="202"/></clipPath><clipPath id="clip1"><rect x="63" y="147" width="62" height="62"/></clipPath><clipPath id="clip2"><rect x="63" y="147" width="62" height="62"/></clipPath><clipPath id="clip3"><rect x="63" y="147" width="62" height="62"/></clipPath><clipPath id="clip4"><rect x="135" y="64" width="33" height="72"/></clipPath><clipPath id="clip5"><rect x="135" y="64" width="33" height="72"/></clipPath><clipPath id="clip6"><rect x="95" y="64" width="73" height="72"/></clipPath><clipPath id="clip7"><rect x="129" y="155" width="45" height="45"/></clipPath><clipPath id="clip8"><rect x="129" y="155" width="45" height="45"/></clipPath><clipPath id="clip9"><rect x="129" y="155" width="45" height="45"/></clipPath><clipPath id="clip10"><rect x="121" y="142" width="8" height="72"/></clipPath><clipPath id="clip11"><rect x="121" y="142" width="8" height="72"/></clipPath><clipPath id="clip12"><rect x="87" y="142" width="76" height="72"/></clipPath><clipPath id="clip13"><rect x="121" y="64" width="8" height="72"/></clipPath><clipPath id="clip14"><rect x="121" y="64" width="8" height="72"/></clipPath><clipPath id="clip15"><rect x="87" y="64" width="76" height="72"/></clipPath><clipPath id="clip16"><rect x="78" y="64" width="33" height="72"/></clipPath><clipPath id="clip17"><rect x="79" y="64" width="33" height="72"/></clipPath><clipPath id="clip18"><rect x="79" y="64" width="74" height="72"/></clipPath></defs><g clip-path="url(#clip0)" transform="translate(-44 -38)"><rect x="45" y="39" width="160" height="200" fill="#F2F2F2"/><g clip-path="url(#clip1)"><g clip-path="url(#clip2)"><g clip-path="url(#clip3)"><path d="M107.24 177.354C106.981 177.354 106.788 177.354 106.529 177.419 106.335 176.644 105.819 175.933 104.979 175.61L99.4896 173.415 95.9375 165.212 95.9375 165.212C95.2271 163.275 93.3542 161.854 91.0938 161.854 89.9313 161.854 88.8979 162.242 88.0583 162.823L88.0583 162.823 79.3396 168.7C78.8229 169.087 78.4354 169.604 78.2417 170.25L76.3042 178.646C75.9812 180.067 76.8208 181.423 78.2417 181.746 78.4354 181.81 78.6292 181.81 78.8229 181.81 79.9854 181.81 81.0833 180.971 81.3417 179.808L83.0208 172.446 84.6354 171.348C83.9896 175.74 83.925 179.227 83.925 179.808L83.2792 191.11 80.7604 202.542C80.4375 203.962 81.3417 205.319 82.6979 205.642 82.8917 205.706 83.0854 205.706 83.2792 205.706 84.4417 205.706 85.5396 204.867 85.7979 203.704L88.3812 192.079C88.3812 191.95 88.4458 191.821 88.4458 191.692L88.7688 185.363 92.9667 190.012 93.5479 202.025C93.6125 203.381 94.775 204.479 96.1312 204.479 96.1958 204.479 96.1958 204.479 96.2604 204.479 97.6812 204.415 98.7792 203.188 98.7146 201.767L98.0687 188.85C98.0687 188.269 97.8104 187.688 97.4229 187.235L92.9021 182.262 92.9021 171.8C92.9021 171.8 92.9667 171.8 92.9667 171.735L95.0333 176.45C95.2917 177.096 95.8083 177.548 96.4542 177.806L102.848 180.39C102.654 180.842 102.59 181.358 102.59 181.875 102.59 183.296 103.235 184.523 104.269 185.363 104.269 185.363 104.333 185.427 104.333 185.427 104.527 185.621 104.85 185.75 105.173 185.75 105.883 185.75 106.465 185.169 106.465 184.458 106.465 184.006 106.271 183.619 105.948 183.425 105.625 183.038 105.302 182.521 105.302 181.875 105.302 180.777 106.142 179.938 107.24 179.938 108.337 179.938 109.177 180.777 109.177 181.875L109.177 185.944 109.177 187.688 109.177 204.479C109.177 205.19 109.758 205.771 110.469 205.771 111.179 205.771 111.76 205.19 111.76 204.479L111.76 181.875C111.76 179.356 109.758 177.354 107.24 177.354Z"/><path d="M99.8125 156.042C99.8125 158.895 97.4993 161.208 94.6458 161.208 91.7924 161.208 89.4792 158.895 89.4792 156.042 89.4792 153.188 91.7924 150.875 94.6458 150.875 97.4993 150.875 99.8125 153.188 99.8125 156.042Z"/></g></g></g><g clip-path="url(#clip4)"><g clip-path="url(#clip5)"><g clip-path="url(#clip6)"><path d="M21.75 11.25C21.75 14.1495 19.3995 16.5 16.5 16.5 13.6005 16.5 11.25 14.1495 11.25 11.25 11.25 8.3505 13.6005 6 16.5 6 19.3995 6 21.75 8.3505 21.75 11.25Z" transform="matrix(1.01077 0 -0 1 95.2246 64)"/><path d="M30.6375 39.0975 26.4675 23.31C26.3256 22.8344 26.0679 22.4015 25.7175 22.05 24.2821 20.5546 22.5105 19.4232 20.55 18.75 19.2628 18.2351 17.8863 17.9802 16.5 18 15.1214 17.9923 13.7516 18.2206 12.45 18.675 10.478 19.3288 8.69963 20.4629 7.275 21.975 6.94053 22.3669 6.68576 22.8205 6.525 23.31L2.3625 39.0975C2.04862 40.2986 2.76684 41.527 3.9675 41.8425 4.15324 41.8931 4.34498 41.9184 4.5375 41.9175 5.57178 41.9349 6.48464 41.2448 6.75 40.245L10.5 25.92 10.5 66 15 66 15 42.75 18 42.75 18 66 22.5 66 22.5 25.92 26.25 40.245C26.5186 41.2587 27.4519 41.9524 28.5 41.9175 28.6925 41.9184 28.8842 41.8931 29.07 41.8425 30.2555 41.5104 30.954 40.2872 30.6375 39.0975Z" transform="matrix(1.01077 0 -0 1 95.2246 64)"/><path d="M60.75 11.25C60.75 14.1495 58.3995 16.5 55.5 16.5 52.6005 16.5 50.25 14.1495 50.25 11.25 50.25 8.3505 52.6005 6 55.5 6 58.3995 6 60.75 8.3505 60.75 11.25Z" transform="matrix(1.01077 0 -0 1 95.2246 64)"/><path d="M69.6375 39.0975 65.4675 23.31C65.3181 22.8377 65.0614 22.4065 64.7175 22.05 63.2821 20.5546 61.5105 19.4232 59.55 18.75 58.2628 18.2351 56.8863 17.9802 55.5 18 54.1213 17.9923 52.7516 18.2206 51.45 18.675 49.478 19.3288 47.6996 20.4629 46.275 21.975 45.9405 22.3669 45.6857 22.8205 45.525 23.31L41.3625 39.0975C41.0486 40.2986 41.7668 41.527 42.9675 41.8425 43.1533 41.8931 43.345 41.9184 43.5375 41.9175 44.5718 41.9349 45.4846 41.2448 45.75 40.245L49.5 25.92 49.5 30.51 44.82 48 49.5 48 49.5 66 54 66 54 48 57 48 57 66 61.5 66 61.5 48 65.37 48 61.5 33.5325 61.5 25.92 65.25 40.245C65.5186 41.2587 66.4519 41.9524 67.5 41.9175 67.6925 41.9184 67.8843 41.8931 68.07 41.8425 69.2555 41.5104 69.954 40.2872 69.6375 39.0975Z" transform="matrix(1.01077 0 -0 1 95.2246 64)"/><path d="M36 67.5C35.1716 67.5 34.5 66.8284 34.5 66L34.5 6C34.5 5.17157 35.1716 4.5 36 4.5 36.8284 4.5 37.5 5.17157 37.5 6L37.5 66C37.5 66.8284 36.8284 67.5 36 67.5Z" transform="matrix(1.01077 0 -0 1 95.2246 64)"/></g></g></g><g clip-path="url(#clip7)"><g clip-path="url(#clip8)"><g clip-path="url(#clip9)"><path d="M157.359 164.609C157.359 167.845 154.736 170.469 151.5 170.469 148.264 170.469 145.641 167.845 145.641 164.609 145.641 161.373 148.264 158.75 151.5 158.75 154.736 158.75 157.359 161.373 157.359 164.609Z"/><path d="M155.719 184.297C155.719 184.344 155.719 184.391 155.719 184.438 154.078 184.578 152.859 185.938 152.906 187.578 152.906 188.047 153.047 188.516 153.281 188.891 152.766 189.078 152.109 189.172 151.406 189.172 150.656 189.172 150.047 189.078 149.578 188.891 150.281 187.859 150.281 186.453 149.531 185.375 148.969 184.625 148.172 184.156 147.281 184.062L147.281 183.125 155.719 183.125 155.719 184.297ZM164.719 175.719 156.656 171.5C156.469 171.453 156.281 171.406 156.094 171.406L147.281 171.406C147.047 171.406 146.859 171.453 146.625 171.5L138.188 176.188C137.203 176.562 136.734 177.641 137.062 178.578 137.344 179.375 138.094 179.844 138.844 179.844 139.078 179.844 139.266 179.797 139.5 179.75L145.406 176.656C145.406 176.656 145.406 184.391 145.406 184.531 145.312 184.578 141.562 187.203 141.562 187.203 140.766 187.766 140.531 188.891 141.047 189.734L144.328 194.891C144.891 195.781 146.062 196.016 146.906 195.453 147.75 194.891 148.031 193.719 147.469 192.875L145.875 190.297 146.906 190.297C147.234 190.297 147.562 190.25 147.891 190.156 148.734 190.719 149.859 191.047 151.359 191.047 152.766 191.047 153.891 190.719 154.781 190.25 155.156 190.438 155.625 190.484 156.094 190.484L156.938 190.438 155.25 192.781C154.641 193.625 154.828 194.797 155.672 195.406 156.516 196.016 157.688 195.828 158.297 194.984L162.047 189.828C162.094 189.781 162.141 189.734 162.141 189.641 162.656 188.75 162.328 187.578 161.438 187.062L157.594 184.906C157.594 184.719 157.594 176.469 157.594 176.469L163.594 179.328C163.781 179.375 163.969 179.422 164.156 179.422 164.953 179.422 165.703 178.906 165.938 178.109 166.266 177.078 165.703 176.047 164.719 175.719Z"/></g></g></g><g clip-path="url(#clip10)"><g clip-path="url(#clip11)"><g clip-path="url(#clip12)"><path d="M21.75 11.25C21.75 14.1495 19.3995 16.5 16.5 16.5 13.6005 16.5 11.25 14.1495 11.25 11.25 11.25 8.3505 13.6005 6 16.5 6 19.3995 6 21.75 8.3505 21.75 11.25Z" transform="matrix(1.03813 0 -0 1 87.7032 142)"/><path d="M30.6375 39.0975 26.4675 23.31C26.3256 22.8344 26.0679 22.4015 25.7175 22.05 24.2821 20.5546 22.5105 19.4232 20.55 18.75 19.2628 18.2351 17.8863 17.9802 16.5 18 15.1214 17.9923 13.7516 18.2206 12.45 18.675 10.478 19.3288 8.69963 20.4629 7.275 21.975 6.94053 22.3669 6.68576 22.8205 6.525 23.31L2.3625 39.0975C2.04862 40.2986 2.76684 41.527 3.9675 41.8425 4.15324 41.8931 4.34498 41.9184 4.5375 41.9175 5.57178 41.9349 6.48464 41.2448 6.75 40.245L10.5 25.92 10.5 66 15 66 15 42.75 18 42.75 18 66 22.5 66 22.5 25.92 26.25 40.245C26.5186 41.2587 27.4519 41.9524 28.5 41.9175 28.6925 41.9184 28.8842 41.8931 29.07 41.8425 30.2555 41.5104 30.954 40.2872 30.6375 39.0975Z" transform="matrix(1.03813 0 -0 1 87.7032 142)"/><path d="M60.75 11.25C60.75 14.1495 58.3995 16.5 55.5 16.5 52.6005 16.5 50.25 14.1495 50.25 11.25 50.25 8.3505 52.6005 6 55.5 6 58.3995 6 60.75 8.3505 60.75 11.25Z" transform="matrix(1.03813 0 -0 1 87.7032 142)"/><path d="M69.6375 39.0975 65.4675 23.31C65.3181 22.8377 65.0614 22.4065 64.7175 22.05 63.2821 20.5546 61.5105 19.4232 59.55 18.75 58.2628 18.2351 56.8863 17.9802 55.5 18 54.1213 17.9923 52.7516 18.2206 51.45 18.675 49.478 19.3288 47.6996 20.4629 46.275 21.975 45.9405 22.3669 45.6857 22.8205 45.525 23.31L41.3625 39.0975C41.0486 40.2986 41.7668 41.527 42.9675 41.8425 43.1533 41.8931 43.345 41.9184 43.5375 41.9175 44.5718 41.9349 45.4846 41.2448 45.75 40.245L49.5 25.92 49.5 30.51 44.82 48 49.5 48 49.5 66 54 66 54 48 57 48 57 66 61.5 66 61.5 48 65.37 48 61.5 33.5325 61.5 25.92 65.25 40.245C65.5186 41.2587 66.4519 41.9524 67.5 41.9175 67.6925 41.9184 67.8843 41.8931 68.07 41.8425 69.2555 41.5104 69.954 40.2872 69.6375 39.0975Z" transform="matrix(1.03813 0 -0 1 87.7032 142)"/><path d="M36 67.5C35.1716 67.5 34.5 66.8284 34.5 66L34.5 6C34.5 5.17157 35.1716 4.5 36 4.5 36.8284 4.5 37.5 5.17157 37.5 6L37.5 66C37.5 66.8284 36.8284 67.5 36 67.5Z" transform="matrix(1.03813 0 -0 1 87.7032 142)"/></g></g></g><g clip-path="url(#clip13)"><g clip-path="url(#clip14)"><g clip-path="url(#clip15)"><path d="M21.75 11.25C21.75 14.1495 19.3995 16.5 16.5 16.5 13.6005 16.5 11.25 14.1495 11.25 11.25 11.25 8.3505 13.6005 6 16.5 6 19.3995 6 21.75 8.3505 21.75 11.25Z" transform="matrix(1.03813 0 -0 1 87.7032 64)"/><path d="M30.6375 39.0975 26.4675 23.31C26.3256 22.8344 26.0679 22.4015 25.7175 22.05 24.2821 20.5546 22.5105 19.4232 20.55 18.75 19.2628 18.2351 17.8863 17.9802 16.5 18 15.1214 17.9923 13.7516 18.2206 12.45 18.675 10.478 19.3288 8.69963 20.4629 7.275 21.975 6.94053 22.3669 6.68576 22.8205 6.525 23.31L2.3625 39.0975C2.04862 40.2986 2.76684 41.527 3.9675 41.8425 4.15324 41.8931 4.34498 41.9184 4.5375 41.9175 5.57178 41.9349 6.48464 41.2448 6.75 40.245L10.5 25.92 10.5 66 15 66 15 42.75 18 42.75 18 66 22.5 66 22.5 25.92 26.25 40.245C26.5186 41.2587 27.4519 41.9524 28.5 41.9175 28.6925 41.9184 28.8842 41.8931 29.07 41.8425 30.2555 41.5104 30.954 40.2872 30.6375 39.0975Z" transform="matrix(1.03813 0 -0 1 87.7032 64)"/><path d="M60.75 11.25C60.75 14.1495 58.3995 16.5 55.5 16.5 52.6005 16.5 50.25 14.1495 50.25 11.25 50.25 8.3505 52.6005 6 55.5 6 58.3995 6 60.75 8.3505 60.75 11.25Z" transform="matrix(1.03813 0 -0 1 87.7032 64)"/><path d="M69.6375 39.0975 65.4675 23.31C65.3181 22.8377 65.0614 22.4065 64.7175 22.05 63.2821 20.5546 61.5105 19.4232 59.55 18.75 58.2628 18.2351 56.8863 17.9802 55.5 18 54.1213 17.9923 52.7516 18.2206 51.45 18.675 49.478 19.3288 47.6996 20.4629 46.275 21.975 45.9405 22.3669 45.6857 22.8205 45.525 23.31L41.3625 39.0975C41.0486 40.2986 41.7668 41.527 42.9675 41.8425 43.1533 41.8931 43.345 41.9184 43.5375 41.9175 44.5718 41.9349 45.4846 41.2448 45.75 40.245L49.5 25.92 49.5 30.51 44.82 48 49.5 48 49.5 66 54 66 54 48 57 48 57 66 61.5 66 61.5 48 65.37 48 61.5 33.5325 61.5 25.92 65.25 40.245C65.5186 41.2587 66.4519 41.9524 67.5 41.9175 67.6925 41.9184 67.8843 41.8931 68.07 41.8425 69.2555 41.5104 69.954 40.2872 69.6375 39.0975Z" transform="matrix(1.03813 0 -0 1 87.7032 64)"/><path d="M36 67.5C35.1716 67.5 34.5 66.8284 34.5 66L34.5 6C34.5 5.17157 35.1716 4.5 36 4.5 36.8284 4.5 37.5 5.17157 37.5 6L37.5 66C37.5 66.8284 36.8284 67.5 36 67.5Z" transform="matrix(1.03813 0 -0 1 87.7032 64)"/></g></g></g><g clip-path="url(#clip16)"><g clip-path="url(#clip17)"><g clip-path="url(#clip18)"><path d="M21.75 11.25C21.75 14.1495 19.3995 16.5 16.5 16.5 13.6005 16.5 11.25 14.1495 11.25 11.25 11.25 8.3505 13.6005 6 16.5 6 19.3995 6 21.75 8.3505 21.75 11.25Z" transform="matrix(1.01077 0 -0 1 79.4722 64)"/><path d="M30.6375 39.0975 26.4675 23.31C26.3256 22.8344 26.0679 22.4015 25.7175 22.05 24.2821 20.5546 22.5105 19.4232 20.55 18.75 19.2628 18.2351 17.8863 17.9802 16.5 18 15.1214 17.9923 13.7516 18.2206 12.45 18.675 10.478 19.3288 8.69963 20.4629 7.275 21.975 6.94053 22.3669 6.68576 22.8205 6.525 23.31L2.3625 39.0975C2.04862 40.2986 2.76684 41.527 3.9675 41.8425 4.15324 41.8931 4.34498 41.9184 4.5375 41.9175 5.57178 41.9349 6.48464 41.2448 6.75 40.245L10.5 25.92 10.5 66 15 66 15 42.75 18 42.75 18 66 22.5 66 22.5 25.92 26.25 40.245C26.5186 41.2587 27.4519 41.9524 28.5 41.9175 28.6925 41.9184 28.8842 41.8931 29.07 41.8425 30.2555 41.5104 30.954 40.2872 30.6375 39.0975Z" transform="matrix(1.01077 0 -0 1 79.4722 64)"/><path d="M60.75 11.25C60.75 14.1495 58.3995 16.5 55.5 16.5 52.6005 16.5 50.25 14.1495 50.25 11.25 50.25 8.3505 52.6005 6 55.5 6 58.3995 6 60.75 8.3505 60.75 11.25Z" transform="matrix(1.01077 0 -0 1 79.4722 64)"/><path d="M69.6375 39.0975 65.4675 23.31C65.3181 22.8377 65.0614 22.4065 64.7175 22.05 63.2821 20.5546 61.5105 19.4232 59.55 18.75 58.2628 18.2351 56.8863 17.9802 55.5 18 54.1213 17.9923 52.7516 18.2206 51.45 18.675 49.478 19.3288 47.6996 20.4629 46.275 21.975 45.9405 22.3669 45.6857 22.8205 45.525 23.31L41.3625 39.0975C41.0486 40.2986 41.7668 41.527 42.9675 41.8425 43.1533 41.8931 43.345 41.9184 43.5375 41.9175 44.5718 41.9349 45.4846 41.2448 45.75 40.245L49.5 25.92 49.5 30.51 44.82 48 49.5 48 49.5 66 54 66 54 48 57 48 57 66 61.5 66 61.5 48 65.37 48 61.5 33.5325 61.5 25.92 65.25 40.245C65.5186 41.2587 66.4519 41.9524 67.5 41.9175 67.6925 41.9184 67.8843 41.8931 68.07 41.8425 69.2555 41.5104 69.954 40.2872 69.6375 39.0975Z" transform="matrix(1.01077 0 -0 1 79.4722 64)"/><path d="M36 67.5C35.1716 67.5 34.5 66.8284 34.5 66L34.5 6C34.5 5.17157 35.1716 4.5 36 4.5 36.8284 4.5 37.5 5.17157 37.5 6L37.5 66C37.5 66.8284 36.8284 67.5 36 67.5Z" transform="matrix(1.01077 0 -0 1 79.4722 64)"/></g></g></g></g></svg>