<svg width="161" height="201" xmlns="http://www.w3.org/2000/svg" xmlns:xlink="http://www.w3.org/1999/xlink" overflow="hidden"><defs><clipPath id="clip0"><rect x="558" y="124" width="161" height="201"/></clipPath><clipPath id="clip1"><rect x="634" y="154" width="65" height="64"/></clipPath><clipPath id="clip2"><rect x="634" y="154" width="65" height="64"/></clipPath><clipPath id="clip3"><rect x="634" y="154" width="65" height="64"/></clipPath><clipPath id="clip4"><rect x="574" y="178" width="60" height="60"/></clipPath><clipPath id="clip5"><rect x="574" y="178" width="60" height="60"/></clipPath><clipPath id="clip6"><rect x="574" y="178" width="60" height="60"/></clipPath><clipPath id="clip7"><rect x="606" y="230" width="64" height="64"/></clipPath><clipPath id="clip8"><rect x="606" y="230" width="64" height="64"/></clipPath><clipPath id="clip9"><rect x="606" y="230" width="64" height="64"/></clipPath></defs><g clip-path="url(#clip0)" transform="translate(-558 -124)"><rect x="559" y="125" width="160" height="200" fill="#F2F2F2"/><g clip-path="url(#clip1)"><g clip-path="url(#clip2)"><g clip-path="url(#clip3)"><path d="M32 9.33333C44.4667 9.33333 54.6667 19.5333 54.6667 32 54.6667 44.4667 44.4667 54.6667 32 54.6667 19.5333 54.6667 9.33333 44.4667 9.33333 32 9.33333 19.5333 19.5333 9.33333 32 9.33333M32 6.66667C18 6.66667 6.66667 18 6.66667 32 6.66667 46 18 57.3333 32 57.3333 46 57.3333 57.3333 46 57.3333 32 57.3333 18 46 6.66667 32 6.66667L32 6.66667Z" transform="matrix(1.01562 0 -0 1 634 154)"/><path d="M32 38.6667C26.6 38.6667 21.8667 41.2 18.8 45.2 18.6667 45.4 18.5333 45.6667 18.5333 46 18.5333 46.7333 19.1333 47.3333 19.8667 47.3333 20.3333 47.3333 20.7333 47.1333 20.9333 46.8 23.4667 43.4667 27.4667 41.4 32 41.4 36.5333 41.4 40.4667 43.4667 43.0667 46.8 43.3333 47.1333 43.7333 47.3333 44.1333 47.3333 44.8667 47.3333 45.4667 46.7333 45.4667 46 45.4667 45.7333 45.4 45.4667 45.2 45.2 42.1333 41.2667 37.4 38.6667 32 38.6667Z" transform="matrix(1.01562 0 -0 1 634 154)"/><path d="M19.3333 37.3333C19.3333 38.4667 20.2 39.3333 21.3333 39.3333 22.4667 39.3333 23.3333 38.4667 23.3333 37.3333 23.3333 36.2 21.3333 33.3333 21.3333 33.3333 21.3333 33.3333 19.3333 36.2 19.3333 37.3333Z" transform="matrix(1.01562 0 -0 1 634 154)"/><path d="M25.3333 28C25.3333 30.2091 23.5425 32 21.3333 32 19.1242 32 17.3333 30.2091 17.3333 28 17.3333 25.7909 19.1242 24 21.3333 24 23.5425 24 25.3333 25.7909 25.3333 28Z" transform="matrix(1.01562 0 -0 1 634 154)"/><path d="M46.6667 28C46.6667 30.2091 44.8758 32 42.6667 32 40.4575 32 38.6667 30.2091 38.6667 28 38.6667 25.7909 40.4575 24 42.6667 24 44.8758 24 46.6667 25.7909 46.6667 28Z" transform="matrix(1.01562 0 -0 1 634 154)"/></g></g></g><g clip-path="url(#clip4)"><g clip-path="url(#clip5)"><g clip-path="url(#clip6)"><path d="M620.188 208.812C621.312 213.375 616.625 217.875 612 216 608.125 214.625 606.625 210.125 609.312 206.25 615.375 198.188 610.938 185.5 600.875 181.125 605.438 189.75 598.438 197.688 594.438 201 590.438 204.312 587.75 207.75 586.938 209.75 582.875 219.625 588.938 229.062 593.062 231.312 591.188 227.062 589.438 218.938 596.812 211.312 596.812 211.312 594.688 219.438 599.312 225.062 603.938 230.688 603.875 234.875 603.875 234.875 611.062 234.875 617.875 230.562 620.75 223.5 622.938 219.312 623.125 212.688 620.188 208.812"/></g></g></g><g clip-path="url(#clip7)"><g clip-path="url(#clip8)"><g clip-path="url(#clip9)"><path d="M666.4 283.333 640.333 238C639.333 236.2 636.733 236.2 635.733 238L609.6 283.333C608.6 285.133 609.867 287.333 611.933 287.333L638 287.333 664.067 287.333C666.133 287.333 667.4 285.133 666.4 283.333ZM636 248.667 640 248.667 640 272 636 272 636 248.667ZM638 281.333C636.133 281.333 634.667 279.867 634.667 278 634.667 276.133 636.133 274.667 638 274.667 639.867 274.667 641.333 276.133 641.333 278 641.333 279.867 639.867 281.333 638 281.333Z"/></g></g></g></g></svg>