<?xml version="1.0" encoding="UTF-8" standalone="no"?> <!-- Created with Vectornator for iOS (http://vectornator.io/) --><!DOCTYPE svg PUBLIC "-//W3C//DTD SVG 1.1//EN" "http://www.w3.org/Graphics/SVG/1.1/DTD/svg11.dtd">
<svg style="fill-rule:evenodd;clip-rule:evenodd;stroke-linecap:round;stroke-linejoin:round;" xmlns:vectornator="http://vectornator.io" xmlns:xlink="http://www.w3.org/1999/xlink" xmlns="http://www.w3.org/2000/svg" xml:space="preserve" version="1.1" viewBox="0 0 600 400">
<metadata>
<vectornator:setting key="DimensionsVisible" value="1"/>
<vectornator:setting key="New" value="1"/>
<vectornator:setting key="SnapToPoints" value="0"/>
<vectornator:setting key="GuidesVisible" value="1"/>
<vectornator:setting key="RulersVisible" value="1"/>
<vectornator:setting key="CMYKEnabledKey" value="0"/>
<vectornator:setting key="SnapToEdges" value="0"/>
<vectornator:setting key="DisplayWhiteBackground" value="0"/>
<vectornator:setting key="SnapToGuides" value="1"/>
<vectornator:setting key="GridSpacing" value="36"/>
<vectornator:setting key="Units" value="Pixels"/>
<vectornator:setting key="DynamicGuides" value="0"/>
<vectornator:setting key="SnapToGrid" value="0"/>
</metadata>
<defs/>
<g id="レイヤー 1" vectornator:layerName="レイヤー 1">
<path stroke="#000000" stroke-width="1" d="M105.626+30.8979L345.996+30.8979L345.996+367.117L105.626+367.117L105.626+30.8979Z" fill="#ffffff" stroke-linecap="butt" opacity="1" stroke-linejoin="round"/>
<path stroke="#000000" stroke-width="1" d="M362.839+30.8981L582.326+30.8981L582.326+181.716L362.839+181.716L362.839+30.8981Z" fill="#ffffff" stroke-linecap="butt" opacity="1" stroke-linejoin="round"/>
<text x="0" font-family="HiraginoSans-W3" y="0" text-anchor="start" vectornator:text="VIPサーバー" fill="#020000" font-size="16" vectornator:width="97.5764" opacity="1" transform="matrix(1 0 0 1 116.181 35.4084)">
<tspan x="0" y="14" textLength="90.048">
VIPサーバー</tspan>
</text>
<path stroke="#000000" stroke-width="1" d="M123.989+188.834L328.162+188.834C329.002+188.834+329.683+189.206+329.683+189.664L329.683+352.507C329.683+352.965+329.002+353.337+328.162+353.337L123.989+353.337C123.15+353.337+122.469+352.965+122.469+352.507L122.469+189.664C122.469+189.206+123.15+188.834+123.989+188.834Z" fill="#ffffff" stroke-linecap="butt" opacity="1" stroke-linejoin="round"/>
<path stroke="#000000" stroke-width="1" d="M124.558+59.6148L327.571+59.6148C328.59+59.6148+329.416+60.945+329.416+62.5859L329.416+109.272C329.416+110.913+328.59+112.243+327.571+112.243L124.558+112.243C123.539+112.243+122.712+110.913+122.712+109.272L122.712+62.5859C122.712+60.945+123.539+59.6148+124.558+59.6148Z" fill="#ffffff" stroke-linecap="butt" opacity="1" stroke-linejoin="round"/>
<path stroke="#000000" stroke-width="1" d="M28.2392+94.8142C31.1927+88.9071+39.1463+83.0415+46.2066+84.6105C48.4604+85.1114+51.2706+87.046+53.083+88.3814C54.5649+89.4734+55.7435+90.7747+56.6321+92.3742C56.9056+92.8664+56.7939+93.6751+57.2976+93.9269C57.6282+94.0923+57.6495+93.2356+57.963+93.0396C58.3836+92.7768+58.838+92.5696+59.2939+92.3742C61.2192+91.5491+61.6139+91.5249+63.9522+91.2651C68.4603+90.7642+73.0249+91.3216+77.0395+93.4833C80.6165+95.4093+84.4384+99.1178+83.4723+103.465C82.9426+105.849+78.8308+106.433+77.0395+106.571C76.6425+106.601+75.7095+106.458+75.9304+106.127C76.5325+105.224+78.949+105.986+79.4795+106.127C82.3318+106.888+83.8948+108.988+85.025+111.894C87.4314+118.082+85.6133+127.247+81.9195+132.524C78.8636+136.889+74.6235+140.462+69.054+139.844C68.1939+139.748+66.8877+139.777+66.614+138.956C66.4718+138.53+67.5544+138.955+67.9449+139.178C68.8609+139.702+69.2005+140.488+69.2758+141.618C69.4269+143.884+67.5003+146.277+65.5049+147.164C60.214+149.515+51.6827+148.81+46.4284+146.942C40.5787+144.862+34.3139+139.969+31.7883+134.076C31.3001+132.937+30.8971+131.747+30.6792+130.527C30.5232+129.654+30.525+128.739+30.6792+127.865C31.2381+124.698+34.5657+128.081+33.5629+129.418C31.7761+131.8+25.6706+129.781+24.0246+129.196C17.3171+126.811+12.3458+122.395+8.94089+116.109C4.02647+107.036+12.0134+98.7257+21.3628+100.803" fill="#ffffff" stroke-linecap="butt" opacity="1" stroke-linejoin="round"/>
<text x="0" font-family="HiraginoSans-W3" y="0" text-anchor="start" vectornator:text="DNSなど、その他サーバー&#xA;" fill="#020000" font-size="9" vectornator:width="119.252" opacity="1" transform="matrix(1 0 0 1 126.229 62.2681)">
<tspan x="0" y="8" textLength="109.809">
DNSなど、その他サーバー
</tspan>
</text>
<text x="0" font-family="HiraginoSans-W3" y="0" text-anchor="start" vectornator:text="" fill="#020000" font-size="12" vectornator:width="20" opacity="1" transform="matrix(1 0 0 1 355.25 -35.4184)"/>
<text x="0" font-family="HiraginoSans-W3" y="0" text-anchor="start" vectornator:text="..." fill="#020000" font-size="33" vectornator:width="49.4817" opacity="1" transform="matrix(1 0 0 1 215.016 62.4349)">
<tspan x="0" y="29" textLength="23.76">
...</tspan>
</text>
<text x="0" font-family="HiraginoSans-W3" y="0" text-anchor="start" vectornator:text="..." fill="#020000" font-size="33" vectornator:width="49.4817" opacity="1" transform="matrix(1 0 0 1 502.569 267.912)">
<tspan x="0" y="29" textLength="23.76">
...</tspan>
</text>
<text x="0" font-family="HiraginoSans-W3" y="0" text-anchor="start" vectornator:text="Webサーバー" fill="#000000" font-size="9" vectornator:width="63.5287" opacity="1" transform="matrix(1 0 0 1 128.039 194.112)">
<tspan x="0" y="8" textLength="56.16">
Webサーバー</tspan>
</text>
<text x="0" font-family="HiraginoSans-W3" y="0" text-anchor="start" vectornator:text="キスト" fill="#000000" font-size="11" vectornator:width="20" opacity="1" transform="matrix(1 0 0 1 29.9108 107.821)"/>
<text x="0" font-family="HiraginoSans-W3" y="0" text-anchor="start" vectornator:text="Internet" fill="#000000" font-size="11" vectornator:width="51.4948" opacity="1" transform="matrix(1 0 0 1 23.836 105.16)">
<tspan x="0" y="10" textLength="42.625">
Internet</tspan>
</text>
<text x="0" font-family="HiraginoSans-W3" y="0" text-anchor="start" vectornator:text="ト" fill="#000000" font-size="11" vectornator:width="20" opacity="1" transform="matrix(1 0 0 1 389.129 49.6764)"/>
<text x="0" font-family="HiraginoSans-W3" y="0" text-anchor="start" vectornator:text="GitHub" fill="#000000" font-size="11" vectornator:width="52.5145" opacity="1" transform="matrix(1 0 0 1 370.828 37.1816)">
<tspan x="0" y="10" textLength="37.686">
GitHub</tspan>
</text>
<path stroke="#000000" stroke-width="1" d="M363.787+198.232L582.062+198.232C582.837+198.232+583.465+198.926+583.465+199.783L583.465+366.62C583.465+367.476+582.837+368.17+582.062+368.17L363.787+368.17C363.012+368.17+362.384+367.476+362.384+366.62L362.384+199.783C362.384+198.926+363.012+198.232+363.787+198.232Z" fill="#ffffff" stroke-linecap="butt" opacity="1" stroke-linejoin="round"/>
<path stroke="#eb0000" stroke-width="1" d="M376.654+229.18L460.581+229.18C461.349+229.18+461.971+229.802+461.971+230.57L461.971+347.358C461.971+348.126+461.349+348.748+460.581+348.748L376.654+348.748C375.886+348.748+375.264+348.126+375.264+347.358L375.264+230.57C375.264+229.802+375.886+229.18+376.654+229.18Z" fill="#ffffff" stroke-linecap="butt" opacity="1" stroke-linejoin="round"/>
<path stroke="#098e0b" stroke-width="1" d="M479+230.565L565.896+230.565C566.664+230.565+567.286+231.232+567.286+232.054L567.286+274.016C567.286+274.838+566.664+275.504+565.896+275.504L479+275.504C478.232+275.504+477.61+274.838+477.61+274.016L477.61+232.054C477.61+231.232+478.232+230.565+479+230.565Z" fill="#ffffff" stroke-linecap="butt" opacity="1" stroke-linejoin="round"/>
<path stroke="#2c60df" stroke-width="1" d="M479+303.256L565.303+303.256C566.07+303.256+566.693+303.958+566.693+304.824L566.693+346.586C566.693+347.452+566.07+348.154+565.303+348.154L479+348.154C478.232+348.154+477.61+347.452+477.61+346.586L477.61+304.824C477.61+303.958+478.232+303.256+479+303.256Z" fill="#ffffff" stroke-linecap="butt" opacity="1" stroke-linejoin="round"/>
<text x="0" font-family="HiraginoSans-W3" y="0" text-anchor="start" vectornator:text="テ...キスト" fill="#ffffff" font-size="33" vectornator:width="20" opacity="1" transform="matrix(1 0 0 1 508.839 286.316)"/>
<text x="0" font-family="HiraginoSans-W3" y="0" text-anchor="start" vectornator:text="" fill="#ffffff" font-size="33" vectornator:width="20" opacity="1" transform="matrix(1 0 0 1 573.797 243.493)"/>
<text x="0" font-family="HiraginoSans-W3" y="0" text-anchor="start" vectornator:text="..." fill="#000000" font-size="33" vectornator:width="31.2379" opacity="1" transform="matrix(1 0 0 1 516.286 277.627)"/>
<text x="0" font-family="HiraginoSans-W3" y="0" text-anchor="start" vectornator:text="..." fill="#000000" font-size="22" vectornator:width="20.4933" opacity="1" transform="matrix(0.00552313 -0.999985 0.999985 0.00552313 503.789 298.697)">
<tspan x="0" y="19" textLength="15.84">
...</tspan>
</text>
<text x="0" font-family="HiraginoSans-W3" y="0" text-anchor="start" vectornator:text="..." fill="#000000" font-size="22" vectornator:width="20.4933" opacity="1" transform="matrix(0.00552313 -0.999985 0.999985 0.00552313 534.462 126.756)">
<tspan x="0" y="19" textLength="15.84">
...</tspan>
</text>
<path stroke="#000000" stroke-width="1" d="M141.538+308.716L247.061+308.716C247.499+308.716+247.853+309.24+247.853+309.885L247.853+339.978C247.853+340.623+247.499+341.147+247.061+341.147L141.538+341.147C141.101+341.147+140.747+340.623+140.747+339.978L140.747+309.885C140.747+309.24+141.101+308.716+141.538+308.716Z" fill="#ffffff" stroke-linecap="butt" opacity="1" stroke-linejoin="round"/>
<path stroke="#000000" stroke-width="1" d="M252.87+308.549L280.845+308.549C281.734+308.549+282.455+309.065+282.455+309.702L282.455+340.171C282.455+340.808+281.734+341.325+280.845+341.325L252.87+341.325C251.981+341.325+251.26+340.808+251.26+340.171L251.26+309.702C251.26+309.065+251.981+308.549+252.87+308.549Z" fill="#ffffff" stroke-linecap="butt" opacity="1" stroke-linejoin="round"/>
<path stroke="#000000" stroke-width="1" d="M287.884+307.88L315.593+307.88C316.45+307.88+317.144+308.399+317.144+309.039L317.144+339.842C317.144+340.483+316.45+341.002+315.593+341.002L287.884+341.002C287.027+341.002+286.333+340.483+286.333+339.842L286.333+309.039C286.333+308.399+287.027+307.88+287.884+307.88Z" fill="#ffffff" stroke-linecap="butt" opacity="1" stroke-linejoin="round"/>
<text x="0" font-family="HiraginoSans-W3" y="0" text-anchor="start" vectornator:text="php-fpm" fill="#000000" font-size="5" vectornator:width="24.3264" opacity="1" transform="matrix(1 0 0 1 256.419 320.917)">
<tspan x="0" y="4" textLength="21.32">
php-fpm</tspan>
</text>
<text x="0" font-family="HiraginoSans-W3" y="0" text-anchor="start" vectornator:text="mariaDB" fill="#000000" font-size="5" vectornator:width="26.1586" opacity="1" transform="matrix(1 0 0 1 290.925 320.816)">
<tspan x="0" y="4" textLength="21.095">
mariaDB</tspan>
</text>
<text x="0" font-family="HiraginoSans-W3" y="0" text-anchor="start" vectornator:text="Apache" fill="#000000" font-size="9" vectornator:width="46.7535" opacity="1" transform="matrix(1 0 0 1 176.518 318.708)">
<tspan x="0" y="8" textLength="33.795">
Apache</tspan>
</text>
<path stroke="#000000" stroke-width="1" d="M142.545+213.877L226.988+213.877C227.622+213.877+228.136+214.444+228.136+215.143L228.136+302.719C228.136+303.418+227.622+303.985+226.988+303.985L142.545+303.985C141.911+303.985+141.397+303.418+141.397+302.719L141.397+215.143C141.397+214.444+141.911+213.877+142.545+213.877Z" fill="#ffffff" stroke-linecap="butt" opacity="0.975317" stroke-linejoin="round"/>
<text x="0" font-family="HiraginoSans-W3" y="0" text-anchor="middle" vectornator:text="HTML&#xA;css&#xA;JavaScript&#xA;などなど " fill="#000000" font-size="9" vectornator:width="62.3522" opacity="0.975317" transform="matrix(1 0 0 1 152.734 225.467)">
<tspan x="31.1761" y="8" textLength="26.766">
HTML
</tspan>
<tspan x="31.1761" y="30.205" textLength="14.868">
css
</tspan>
<tspan x="31.1761" y="52.4101" textLength="46.404">
JavaScript
</tspan>
</text>
<path stroke="#000000" stroke-width="1" d="M233.705+214.156L316.352+214.156C317.203+214.156+317.894+214.771+317.894+215.529L317.894+302.314C317.894+303.073+317.203+303.688+316.352+303.688L233.705+303.688C232.854+303.688+232.163+303.073+232.163+302.314L232.163+215.529C232.163+214.771+232.854+214.156+233.705+214.156Z" fill="#ffffff" stroke-linecap="butt" opacity="0.975317" stroke-linejoin="round"/>
<text x="0" font-family="HiraginoSans-W3" y="0" text-anchor="middle" vectornator:text="VIP&#x20;Cloud&#x20;" fill="#000000" font-size="9" vectornator:width="47.2819" opacity="0.975317" transform="matrix(1 0 0 1 251.616 251.7)">
<tspan x="23.2695" y="8" textLength="46.539">
VIP Cloud </tspan>
</text>
<path stroke="#000000" stroke-width="1" d="M189.321+138.481L264.222+138.481C270.91+138.481+276.331+143.902+276.331+150.59L276.331+155.955C276.331+162.643+270.91+168.064+264.222+168.064L189.321+168.064C182.633+168.064+177.212+162.643+177.212+155.955L177.212+150.59C177.212+143.902+182.633+138.481+189.321+138.481Z" fill="#ffffff" stroke-linecap="round" opacity="1" stroke-linejoin="round"/>
<text x="0" font-family="HiraginoSans-W3" y="0" text-anchor="start" vectornator:text="git" fill="#000000" font-size="17" vectornator:width="29.4572" opacity="1" transform="matrix(1 0 0 1 213.773 144.206)">
<tspan x="0" y="15" textLength="21.607">
git</tspan>
</text>
<text x="0" font-family="HiraginoSans-W3" y="0" text-anchor="start" vectornator:text="Locals&#x20;" fill="#000000" font-size="11" vectornator:width="45.2027" opacity="1" transform="matrix(1 0 0 1 371.907 201.704)">
<tspan x="0" y="10" textLength="38.302">
Locals </tspan>
</text>
<text x="0" font-family="HiraginoSans-W3" y="0" text-anchor="start" vectornator:text="Leader" fill="#000000" font-size="6" vectornator:width="27.5091" opacity="1" transform="matrix(1 0 0 1 379.993 232.665)">
<tspan x="0" y="5" textLength="20.574">
Leader</tspan>
</text>
<text x="0" font-family="HiraginoSans-W3" y="0" text-anchor="start" vectornator:text="Collaborator&#x20;A" fill="#000000" font-size="6" vectornator:width="52.348" opacity="1" transform="matrix(1 0 0 1 481.372 234.094)">
<tspan x="0" y="5" textLength="43.356">
Collaborator A</tspan>
</text>
<text x="0" font-family="HiraginoSans-W3" y="0" text-anchor="start" vectornator:text="Collaborator&#x20;B" fill="#000000" font-size="6" vectornator:width="51.55" opacity="1" transform="matrix(1 0 0 1 482.639 305.804)">
<tspan x="0" y="5" textLength="43.128">
Collaborator B</tspan>
</text>
<text x="0" font-family="HiraginoSans-W3" y="0" text-anchor="start" vectornator:text="テキスト" fill="#000000" font-size="22" vectornator:width="20" opacity="1" transform="matrix(1 0 0 1 634.207 198.24)">
<tspan x="0" y="19" textLength="22">
テ</tspan>
</text>
<path stroke="#ff0000" stroke-width="1" d="M376.674+65.0587L451.407+65.0587C452.154+65.0587+452.76+65.7221+452.76+66.5405L452.76+167.641C452.76+168.459+452.154+169.123+451.407+169.123L376.674+169.123C375.927+169.123+375.321+168.459+375.321+167.641L375.321+66.5405C375.321+65.7221+375.927+65.0587+376.674+65.0587Z" fill="#ffffff" stroke-linecap="butt" opacity="1" stroke-linejoin="round"/>
<path stroke="#000000" stroke-width="1" d="M468.046+65.6234L515.999+65.6234C516.767+65.6234+517.389+66.2536+517.389+67.0309L517.389+167.204C517.389+167.982+516.767+168.612+515.999+168.612L468.046+168.612C467.278+168.612+466.656+167.982+466.656+167.204L466.656+67.0309C466.656+66.2536+467.278+65.6234+468.046+65.6234Z" fill="#ffffff" stroke-linecap="butt" opacity="1" stroke-linejoin="round"/>
<path stroke="#098e0b" stroke-width="1" d="M530.354+64.9618L573.017+64.9618C573.785+64.9618+574.407+65.5768+574.407+66.3355L574.407+99.9453C574.407+100.704+573.785+101.319+573.017+101.319L530.354+101.319C529.586+101.319+528.964+100.704+528.964+99.9453L528.964+66.3355C528.964+65.5768+529.586+64.9618+530.354+64.9618Z" fill="#ffffff" stroke-linecap="butt" opacity="1" stroke-linejoin="round"/>
<path stroke="#2c60df" stroke-width="1" d="M529.676+136.298L572.855+136.298C573.642+136.298+574.28+136.944+574.28+137.741L574.28+166.822C574.28+167.619+573.642+168.264+572.855+168.264L529.676+168.264C528.89+168.264+528.252+167.619+528.252+166.822L528.252+137.741C528.252+136.944+528.89+136.298+529.676+136.298Z" fill="#ffffff" stroke-linecap="butt" opacity="1" stroke-linejoin="round"/>
<text x="0" font-family="HiraginoSans-W3" y="0" text-anchor="start" vectornator:text="develop" fill="#000000" font-size="8" vectornator:width="36.2428" opacity="1" transform="matrix(1 0 0 1 469.54 67.7926)">
<tspan x="0" y="7" textLength="30.96">
develop</tspan>
</text>
<text x="0" font-family="HiraginoSans-W3" y="0" text-anchor="start" vectornator:text="A" fill="#000000" font-size="6" vectornator:width="35.9857" opacity="1" transform="matrix(1 0 0 1 531.615 69.2063)">
<tspan x="0" y="5" textLength="4.5">
A</tspan>
</text>
<text x="0" font-family="HiraginoSans-W3" y="0" text-anchor="start" vectornator:text="B" fill="#000000" font-size="6" vectornator:width="20" opacity="1" transform="matrix(1 0 0 1 531.872 140.278)">
<tspan x="0" y="5" textLength="4.272">
B</tspan>
</text>
<g opacity="1">
<g>
<path stroke-linecap="butt" stroke-width="1" stroke="#098e0b" d="M521.094+85.2681C521.775+85.2681+528.883+85.2681+528.883+85.2681" fill="none" stroke-linejoin="round"/>
<path d="M521.969+85.2681L524.594+81.7681L517.594+85.2681L524.594+88.7681L521.969+85.2681Z" fill="#098e0b"/>
</g>
</g>
<g opacity="1">
<g>
<path stroke-linecap="round" stroke-width="1" stroke="#2c60df" d="M521.546+153.599C522.004+153.599+527.872+153.599+527.872+153.599" fill="none" stroke-linejoin="round"/>
<path d="M522.421+153.599L525.046+150.099L518.046+153.599L525.046+157.099L522.421+153.599Z" fill="#2c60df"/>
</g>
</g>
<g opacity="1">
<g>
<path stroke-linecap="round" stroke-width="1" stroke="#ff0000" d="M457.048+117.712C457.978+117.712+466.553+117.712+466.553+117.712" fill="none" stroke-linejoin="round"/>
<path d="M457.923+117.712L460.548+114.212L453.548+117.712L460.548+121.212L457.923+117.712Z" fill="#ff0000"/>
</g>
</g>
<path stroke="#098e0b" stroke-width="1" d="M574.682+83.5337L594.1+95.6346L592.691+224.046L567.948+256.149" fill="none" stroke-linecap="butt" opacity="1" stroke-linejoin="round"/>
<path stroke="#2c60df" stroke-width="1" d="M574.055+151.645L587.853+163.83L588.134+305.751L566.733+328.56" fill="none" stroke-linecap="butt" opacity="1" stroke-linejoin="round"/>
<text x="0" font-family="HiraginoSans-W3" y="0" text-anchor="start" vectornator:text="master" fill="#000000" font-size="8" vectornator:width="35.0901" opacity="1" transform="matrix(1 0 0 1 380.086 68.1574)">
<tspan x="0" y="7" textLength="27.624">
master</tspan>
</text>
<text x="0" font-family="HiraginoSans-W3" y="0" text-anchor="start" vectornator:text="テキスト" fill="#ffffff" font-size="22" vectornator:width="20" opacity="1" transform="matrix(1 0 0 1 393.325 131.233)"/>
<path stroke="#ff0000" stroke-width="1" d="M431.47+169.666L431.47+229.921" fill="none" stroke-linecap="butt" opacity="1" stroke-linejoin="round"/>
<path stroke="#ff0000" stroke-width="1" d="M276.902+154.848L354.099+154.984L354.183+243.33L375.357+243.33" fill="none" stroke-linecap="round" opacity="1" stroke-linejoin="round"/>
<text x="0" font-family="HiraginoSans-W3" y="0" text-anchor="start" vectornator:text="ssh" fill="#000000" font-size="9" vectornator:width="23.5679" opacity="1" transform="matrix(1 0 0 1 311.639 145.279)">
<tspan x="0" y="8" textLength="15.219">
ssh</tspan>
</text>
<g opacity="1">
<g>
<path stroke-linecap="round" stroke-width="1" stroke="#000000" d="M89.8803+120.774C91.5839+120.771+105.353+120.747+105.353+120.747" fill="none" stroke-linejoin="round"/>
<path d="M90.7553+120.773L93.3741+117.268L86.3803+120.781L93.3865+124.268L90.7553+120.773Z" fill="#000000"/>
</g>
</g>
<path stroke="#000000" stroke-width="1" d="M229.772+168.201L229.804+189.125" fill="none" stroke-linecap="butt" opacity="1" stroke-linejoin="round"/>
</g>
</svg>
